<svg version="1.2" xmlns="http://www.w3.org/2000/svg" viewBox="0 0 97 92" width="97" height="92">
    <style>
        .s0 {
            fill: #4f46e5
        }

        .s1 {
            fill: #3932b0
        }
    </style>
    <path id="Layer" class="s0"
        d="m82.4 73.6c0.6 2.2-1.5 4.3-3.7 3.7l-21.4-5.8c-2.3-0.6-3-3.4-1.4-5l15.7-15.7c1.6-1.6 4.4-0.9 5 1.4z" />
    <path id="Layer" class="s0"
        d="m47.8 84.3c-21.4 0-38.7-17.3-38.7-38.7 0-21.3 17.3-38.6 38.7-38.6 21.3 0 38.6 17.3 38.6 38.6 0 21.4-17.3 38.7-38.6 38.7z" />
    <path id="Layer" fill-rule="evenodd" class="s1"
        d="m40.1 14c-10.2 10.2-12.7 26.3-5.2 39.3 7.6 13.1 22.8 19 36.7 15.2-2 2-4.3 3.8-6.8 5.2-15.6 9-35.5 3.7-44.5-11.9-9-15.6-3.7-35.5 11.9-44.5 2.6-1.5 5.2-2.6 7.9-3.3z" />
</svg>