<svg version="1.2" xmlns="http://www.w3.org/2000/svg" viewBox="0 0 500 500" width="500" height="500">
	<title>wispr_logo</title>
	<style>
		.s0 { fill: #8257e6 } 
		.s1 { fill: #ffffff } 
	</style>
	<path id="me" class="s0" d="m459.7 331.7l29.3 115.6-110.2-31.2zm-210.3 133.7c-131.2 0-237.4-96.4-237.4-215.7 0-119.3 106.2-215.7 237.4-215.7 131.3 0 237.4 96.4 237.4 215.7 0 119.3-106.1 215.7-237.4 215.7z"/>
	<path id="..." class="s1" aria-label="..."  d="m133.9 286.2q-15.3 0-26.3-10.7-10.8-10.8-10.7-26.2-0.1-15.1 10.7-25.8 11-10.7 26.3-10.7 14.5 0 25.6 10.7 11.2 10.7 11.3 25.8-0.1 10.3-5.4 18.7-5.1 8.3-13.5 13.3-8.3 4.9-18 4.9zm116.1 0q-15.3 0-26.3-10.7-10.8-10.8-10.7-26.2-0.1-15.1 10.7-25.8 11-10.7 26.3-10.7 14.5 0 25.6 10.7 11.2 10.7 11.4 25.8-0.2 10.3-5.5 18.7-5.1 8.3-13.4 13.3-8.3 4.9-18.1 4.9zm116.1 0q-15.3 0-26.2-10.7-10.8-10.8-10.7-26.2-0.1-15.1 10.7-25.8 10.9-10.7 26.2-10.7 14.6 0 25.6 10.7 11.3 10.7 11.4 25.8-0.1 10.3-5.4 18.7-5.2 8.3-13.5 13.3-8.3 4.9-18.1 4.9z"/>
</svg>