<svg width="653" height="668" viewBox="0 0 653 668" fill="none" xmlns="http://www.w3.org/2000/svg">
    <path
        d="M326.514 667.09C425.391 667.09 504.492 637.207 563.818 577.002C623.144 516.797 652.588 435.498 652.588 333.106C652.588 230.713 622.705 149.414 563.379 89.6484C504.053 29.8828 424.951 0 326.074 0C227.197 0 148.096 29.8828 88.7695 89.6484C29.4433 149.414 0 230.713 0 333.106C0 435.498 29.4433 516.797 88.7695 577.002C148.096 637.207 227.197 667.09 326.074 667.09H326.514ZM348.486 638.086C315.967 638.086 286.963 624.903 261.474 598.975C235.986 573.047 216.211 540.088 202.588 499.659C188.965 459.229 178.418 418.799 171.387 377.93C164.355 337.061 160.84 298.389 160.84 261.914C160.84 191.163 174.023 134.473 200.391 92.2851C226.758 50.0976 261.474 29.0039 304.541 29.0039C330.908 29.0039 355.078 37.793 377.051 55.3711C399.023 72.9492 416.601 95.3613 430.224 122.608C443.848 149.854 455.273 180.616 464.502 214.893C473.73 249.17 480.322 282.129 484.277 313.77C488.232 345.411 489.99 375.293 489.99 403.418C489.99 476.368 476.807 533.936 450.439 575.684C424.072 617.432 389.795 638.526 348.047 638.526L348.486 638.086Z"
        fill="#6C47FF" />
</svg>